<svg width="52px" height="48px" viewBox="0 0 52 48" version="1.1" class="GfYBMd hy2WD hDxkqe"><g stroke="none" stroke-width="1" fill="none" fill-rule="evenodd"><path d="M16.8512249,31.8905247 C17.6333653,33.2917762 18.0234354,34.4179784 18.0224352,35.268131 C18.0204348,38.2726703 15.5829973,40.705107 12.5784579,40.7031066 C9.5739186,40.7001061 7.14048177,38.2626685 7.14348231,35.2581292 C7.14648285,32.25459 9.58392039,29.8211532 12.5884597,29.8241537 C12.740487,29.8241537 12.8915141,29.8301548 13.0405409,29.842157 L17.6683716,22.1457754 C14.968887,19.8353607 13.2595802,16.4027445 13.2625807,12.5710567 C13.2685818,5.6218092 18.9075941,-0.00620107639 25.8558413,-0.000199999139 C32.8050888,0.00580107811 38.4340993,5.64481333 38.4280982,12.5940608 C38.4260978,13.8362838 38.2450653,15.0374994 37.9080048,16.1707028 L32.9961231,14.9394818 C33.2401669,14.2003491 33.3721906,13.4102073 33.3721906,12.5890599 C33.3761913,8.43231371 30.009587,5.05870812 25.8518406,5.0547074 C21.6940943,5.05170686 18.3214889,8.4183112 18.3174881,12.5760576 C18.3154878,14.4924016 19.0306162,16.2427158 20.2088277,17.5719544 L24.0525176,19.9093739 L16.8512249,31.8905247 Z M37.7509766,27.886806 L33.5112156,30.2142238 L26.6999929,18.0050321 C25.5287826,18.1780632 24.2935609,17.9720262 23.1883625,17.3339116 C20.5868955,15.831642 19.6957356,12.5050448 21.1980052,9.90357782 C22.6992747,7.30211083 26.026872,6.40995068 28.628339,7.91222035 C31.229806,9.41449002 32.120966,12.7410872 30.6196965,15.3435543 C30.5426827,15.4745779 30.4626683,15.6026008 30.3776531,15.7256229 L34.622415,23.3729957 C37.998021,22.1417747 41.8757171,22.3578135 45.2313194,24.2951612 C51.2493997,27.769785 53.3107698,35.4651664 49.836146,41.4832467 C46.3615223,47.501327 38.6671411,49.5636972 32.6480606,46.0890734 C31.6238768,45.4969672 30.7137134,44.782839 29.9265721,43.9756941 L33.3821924,40.4000522 C33.8902836,40.9551519 34.4903913,41.4432395 35.1765145,41.8393106 C38.7761607,43.9176837 43.3799871,42.6844623 45.4583602,39.0838159 C47.5377334,35.4831696 46.3035119,30.8793432 42.7038657,28.8009701 C41.145586,27.9008085 39.3992725,27.6217584 37.7509766,27.886806 Z M34.1793355,37.7665795 L24.9466781,37.7665795 C24.2235483,41.5702623 21.7581058,45.0248824 17.8714081,46.8422086 C12.5914603,49.3106517 6.13730169,47.7263673 2.60466755,43.089535 C-2.02316318,37.0144445 -0.256846115,28.4589087 6.10429577,24.6362225 C7.16948698,23.9961076 8.29168842,23.5320242 9.436894,23.2359711 L10.8531482,27.8778044 C9.67493673,28.1698568 8.53373187,28.7539616 7.53155197,29.6571238 C5.29315016,31.6744859 4.47900401,34.945073 5.51018912,37.7755811 C7.20349308,42.4274161 12.3644195,44.0817131 16.4051449,41.7012858 C18.177463,40.6560982 19.5227045,39.0328068 20.0097919,37.1894759 L20.0257948,33.4868112 L33.9672974,33.4448037 C34.505394,32.0135468 35.6485992,30.7943279 37.2928944,30.2112232 C39.2592474,29.5130979 41.5276546,30.0511945 42.9639124,31.5654663 C45.7624148,34.5179963 44.5722011,39.2688491 40.7065072,40.5510793 C38.7451551,41.2021962 36.5137545,40.6240924 35.1085023,39.1088204 C34.7214328,38.6917456 34.4123773,38.2386642 34.1793355,37.7665795 Z" fill="#000000"></path></g></svg>